<?xml version="1.0" encoding="UTF-8" standalone="no"?>
<!DOCTYPE svg PUBLIC "-//W3C//DTD SVG 1.1//EN"
 "http://www.w3.org/Graphics/SVG/1.1/DTD/svg11.dtd">
<!-- Generated by graphviz version 12.2.1 (0)
 -->
<!-- Pages: 1 -->
<svg width="609pt" height="152pt"
 viewBox="0.00 0.00 608.51 151.64" xmlns="http://www.w3.org/2000/svg" xmlns:xlink="http://www.w3.org/1999/xlink">
<g id="graph0" class="graph" transform="scale(1 1) rotate(0) translate(4 147.64)">
<polygon fill="white" stroke="none" points="-4,4 -4,-147.64 604.51,-147.64 604.51,4 -4,4"/>
<text text-anchor="middle" x="300.25" y="-7.95" font-family="Times,serif" font-size="14.00">WashingMachine</text>
<!-- filling -->
<g id="node1" class="node">
<title>filling</title>
<path fill="white" stroke="black" d="M45.25,-90.64C45.25,-90.64 12,-90.64 12,-90.64 6,-90.64 0,-84.64 0,-78.64 0,-78.64 0,-66.64 0,-66.64 0,-60.64 6,-54.64 12,-54.64 12,-54.64 45.25,-54.64 45.25,-54.64 51.25,-54.64 57.25,-60.64 57.25,-66.64 57.25,-66.64 57.25,-78.64 57.25,-78.64 57.25,-84.64 51.25,-90.64 45.25,-90.64"/>
<text text-anchor="start" x="8" y="-67.97" font-family="Times,serif" font-size="14.00">filling</text>
</g>
<!-- running -->
<g id="node2" class="node">
<title>running</title>
<path fill="white" stroke="black" d="M233,-138.64C233,-138.64 184.75,-138.64 184.75,-138.64 178.75,-138.64 172.75,-132.64 172.75,-126.64 172.75,-126.64 172.75,-114.64 172.75,-114.64 172.75,-108.64 178.75,-102.64 184.75,-102.64 184.75,-102.64 233,-102.64 233,-102.64 239,-102.64 245,-108.64 245,-114.64 245,-114.64 245,-126.64 245,-126.64 245,-132.64 239,-138.64 233,-138.64"/>
<text text-anchor="start" x="180.75" y="-115.97" font-family="Times,serif" font-size="14.00">running</text>
</g>
<!-- filling&#45;&gt;running -->
<g id="edge1" class="edge">
<title>filling&#45;&gt;running</title>
<path fill="none" stroke="black" d="M57.69,-86.79C63.41,-89.31 69.45,-91.74 75.25,-93.64 103.14,-102.76 135.38,-109.41 161.09,-113.83"/>
<polygon fill="black" stroke="black" points="160.47,-117.27 170.91,-115.45 161.61,-110.37 160.47,-117.27"/>
<text text-anchor="middle" x="115" y="-116.41" font-family="Times,serif" font-size="14.00">d1_success</text>
</g>
<!-- fault -->
<g id="node3" class="node">
<title>fault</title>
<path fill="white" stroke="black" d="M328.25,-90.64C328.25,-90.64 298.25,-90.64 298.25,-90.64 292.25,-90.64 286.25,-84.64 286.25,-78.64 286.25,-78.64 286.25,-66.64 286.25,-66.64 286.25,-60.64 292.25,-54.64 298.25,-54.64 298.25,-54.64 328.25,-54.64 328.25,-54.64 334.25,-54.64 340.25,-60.64 340.25,-66.64 340.25,-66.64 340.25,-78.64 340.25,-78.64 340.25,-84.64 334.25,-90.64 328.25,-90.64"/>
<text text-anchor="start" x="294.25" y="-67.97" font-family="Times,serif" font-size="14.00">fault</text>
</g>
<!-- filling&#45;&gt;fault -->
<g id="edge2" class="edge">
<title>filling&#45;&gt;fault</title>
<path fill="none" stroke="black" d="M57.61,-72.46C63.44,-72.43 69.55,-72.41 75.25,-72.39 145.65,-72.2 227.82,-72.38 274.58,-72.51"/>
<polygon fill="black" stroke="black" points="274.42,-76.01 284.44,-72.54 274.45,-69.01 274.42,-76.01"/>
<text text-anchor="middle" x="115" y="-76.34" font-family="Times,serif" font-size="14.00">d1_error</text>
</g>
<!-- draining -->
<g id="node4" class="node">
<title>draining</title>
<path fill="white" stroke="black" d="M445.51,-143.64C445.51,-143.64 393.5,-143.64 393.5,-143.64 387.5,-143.64 381.5,-137.64 381.5,-131.64 381.5,-131.64 381.5,-119.64 381.5,-119.64 381.5,-113.64 387.5,-107.64 393.5,-107.64 393.5,-107.64 445.51,-107.64 445.51,-107.64 451.51,-107.64 457.51,-113.64 457.51,-119.64 457.51,-119.64 457.51,-131.64 457.51,-131.64 457.51,-137.64 451.51,-143.64 445.51,-143.64"/>
<text text-anchor="start" x="389.5" y="-120.97" font-family="Times,serif" font-size="14.00">draining</text>
</g>
<!-- running&#45;&gt;draining -->
<g id="edge3" class="edge">
<title>running&#45;&gt;draining</title>
<path fill="none" stroke="black" d="M245.27,-121.49C279.51,-122.31 331.68,-123.56 369.83,-124.48"/>
<polygon fill="black" stroke="black" points="369.58,-127.97 379.66,-124.71 369.75,-120.97 369.58,-127.97"/>
<text text-anchor="middle" x="313.25" y="-128.25" font-family="Times,serif" font-size="14.00">wash_finished</text>
</g>
<!-- stopped -->
<g id="node5" class="node">
<title>stopped</title>
<path fill="darksalmon" stroke="red" d="M584.51,-94.64C584.51,-94.64 527.51,-94.64 527.51,-94.64 521.51,-94.64 515.51,-88.64 515.51,-82.64 515.51,-82.64 515.51,-62.64 515.51,-62.64 515.51,-56.64 521.51,-50.64 527.51,-50.64 527.51,-50.64 584.51,-50.64 584.51,-50.64 590.51,-50.64 596.51,-56.64 596.51,-62.64 596.51,-62.64 596.51,-82.64 596.51,-82.64 596.51,-88.64 590.51,-94.64 584.51,-94.64"/>
<path fill="none" stroke="red" d="M588.51,-98.64C588.51,-98.64 523.51,-98.64 523.51,-98.64 517.51,-98.64 511.51,-92.64 511.51,-86.64 511.51,-86.64 511.51,-58.64 511.51,-58.64 511.51,-52.64 517.51,-46.64 523.51,-46.64 523.51,-46.64 588.51,-46.64 588.51,-46.64 594.51,-46.64 600.51,-52.64 600.51,-58.64 600.51,-58.64 600.51,-86.64 600.51,-86.64 600.51,-92.64 594.51,-98.64 588.51,-98.64"/>
<text text-anchor="start" x="523.51" y="-67.97" font-family="Times,serif" font-size="14.00">stopped</text>
</g>
<!-- fault&#45;&gt;stopped -->
<g id="edge4" class="edge">
<title>fault&#45;&gt;stopped</title>
<path fill="none" stroke="black" d="M340.48,-72.64C378.58,-72.64 450.14,-72.64 500.09,-72.64"/>
<polygon fill="black" stroke="black" points="499.83,-76.14 509.83,-72.64 499.83,-69.14 499.83,-76.14"/>
<text text-anchor="middle" x="419.5" y="-76.59" font-family="Times,serif" font-size="14.00">repair</text>
</g>
<!-- draining&#45;&gt;stopped -->
<g id="edge5" class="edge">
<title>draining&#45;&gt;stopped</title>
<path fill="none" stroke="black" d="M457.97,-110.88C471.1,-105.7 486.13,-99.78 500.38,-94.17"/>
<polygon fill="black" stroke="black" points="501.65,-97.43 509.67,-90.51 499.08,-90.92 501.65,-97.43"/>
<text text-anchor="middle" x="484.51" y="-107.84" font-family="Times,serif" font-size="14.00">d2</text>
</g>
<!-- stopped&#45;&gt;filling -->
<g id="edge6" class="edge">
<title>stopped&#45;&gt;filling</title>
<path fill="none" stroke="black" d="M511.38,-59.58C472.89,-48.77 415.04,-34.27 363.5,-28.39 256.58,-16.2 130.83,-44.41 68.59,-61.23"/>
<polygon fill="black" stroke="black" points="67.89,-57.79 59.18,-63.82 69.75,-64.54 67.89,-57.79"/>
<text text-anchor="middle" x="313.25" y="-32.34" font-family="Times,serif" font-size="14.00">start_button</text>
</g>
</g>
</svg>
